Coordinates
version=1
nRows=24
nColumns=24
inDegrees=yes

Units are S.I. units (second, meters, Newtons, ...)
If the header above contains a line with 'inDegrees', this indicates whether rotational values are in degrees (yes) or radians (no).

endheader
time	pelvis_tilt	pelvis_list	pelvis_rotation	pelvis_tx	pelvis_ty	pelvis_tz	hip_flexion_r	hip_adduction_r	hip_rotation_r	knee_angle_r	ankle_angle_r	subtalar_angle_r	mtp_angle_r	hip_flexion_l	hip_adduction_l	hip_rotation_l	knee_angle_l	ankle_angle_l	subtalar_angle_l	mtp_angle_l	lumbar_extension	lumbar_bending	lumbar_rotation
2.800000	11.425913	2.003565	-180.490170	0.270075	0.739046	-1.212387	46.219283	-21.054665	-21.456059	-63.948675	23.252799	10.537366	0.000000	47.814613	-25.696320	-16.247878	-63.995862	23.090713	15.849593	0.000000	-5.580790	2.112863	0.329761
2.805000	11.521891	2.032468	-180.489824	0.270610	0.736228	-1.212440	46.739306	-21.172789	-21.320907	-64.678555	23.590096	10.542240	0.000000	48.401990	-25.862311	-16.032449	-64.783133	23.353659	15.861228	0.000000	-5.570360	2.122748	0.376244
2.810000	11.504810	2.008897	-180.444321	0.271276	0.733373	-1.212606	47.170277	-21.364489	-21.172344	-65.455742	23.934065	10.559379	0.000000	48.869756	-25.962634	-15.816663	-65.510927	23.719915	15.972077	0.000000	-5.689003	2.093739	0.290813
2.815000	11.550168	1.981160	-180.432213	0.271805	0.730536	-1.212661	47.662118	-21.544148	-21.000081	-66.208031	24.264416	10.569439	0.000000	49.364822	-26.068047	-15.656218	-66.240721	24.016994	16.011001	0.000000	-5.727113	2.063406	0.285384
2.820000	11.716234	2.037860	-180.545101	0.272379	0.727707	-1.212577	48.271140	-21.560383	-20.797598	-66.875629	24.544116	10.559992	0.000000	49.979617	-26.304871	-15.479863	-66.980840	24.343358	16.076863	0.000000	-5.635803	2.178098	0.420838
2.825000	11.572473	1.960797	-180.446318	0.272890	0.724930	-1.212961	48.589771	-21.835089	-20.656907	-67.732522	24.985839	10.589400	0.000000	50.149507	-26.332633	-15.358461	-67.184881	25.181234	16.523852	0.000000	-5.892087	2.008030	0.320242
2.830000	11.778949	2.204271	-180.884750	0.273354	0.722364	-1.212608	49.216305	-21.476398	-20.383746	-68.222354	25.092288	10.579060	0.000000	50.844253	-26.952369	-15.242460	-68.393369	25.132764	16.380465	0.000000	-5.776967	2.413539	0.826335
2.835000	11.663357	1.994307	-180.528792	0.273820	0.719387	-1.213294	49.545361	-21.993592	-20.302086	-69.144756	25.597559	10.527838	0.000000	51.108330	-26.736957	-15.063073	-68.586082	25.837848	16.780448	0.000000	-5.977048	1.991290	0.481944
2.840000	11.803431	2.092955	-180.899199	0.274384	0.716719	-1.212920	50.151200	-21.815659	-19.983713	-69.679579	25.760130	10.605042	0.000000	51.598790	-27.173794	-15.076089	-69.328127	26.222932	16.846763	0.000000	-5.928139	2.268687	0.809398
2.845000	11.804268	2.111031	-180.957782	0.274850	0.714001	-1.213162	50.578973	-21.872844	-19.817068	-70.371262	26.053428	10.566151	0.000000	51.993325	-27.385766	-15.019351	-69.948144	26.649467	16.782860	0.000000	-6.016201	2.263846	0.906807
2.850000	11.829629	2.153723	-181.051512	0.275322	0.711344	-1.213524	51.018138	-21.855662	-19.673883	-71.021801	26.359005	10.421657	0.000000	52.569615	-27.683907	-14.809389	-71.129203	26.342535	16.652501	0.000000	-6.080798	2.285190	1.014517
2.855000	11.869667	2.118811	-181.089065	0.275771	0.708552	-1.213554	51.516563	-22.002799	-19.457103	-71.739807	26.644415	10.480637	0.000000	52.924474	-27.797950	-14.704950	-71.476046	27.032661	16.967595	0.000000	-6.129015	2.223042	1.118415
2.860000	11.727738	1.948316	-180.785439	0.276214	0.705769	-1.214336	51.791633	-22.434169	-19.381960	-72.585712	27.097344	10.448933	0.000000	53.315104	-27.695846	-14.500513	-72.387973	26.895030	16.896893	0.000000	-6.340412	1.896228	0.776322
2.865000	11.866645	2.081093	-181.192935	0.276682	0.703095	-1.214003	52.374144	-22.179075	-19.090946	-73.084011	27.211464	10.459591	0.000000	53.787453	-28.192611	-14.508592	-73.117844	27.255791	16.712998	0.000000	-6.292453	2.185008	1.203603
2.870000	11.736238	1.929195	-180.918184	0.277038	0.700370	-1.214855	52.636356	-22.544178	-19.004256	-73.898900	27.677318	10.321994	0.000000	54.098126	-28.096334	-14.299919	-73.687594	27.439513	17.045804	0.000000	-6.483118	1.846433	0.928857
2.875000	11.857299	2.086442	-181.323959	0.277501	0.697661	-1.214533	53.202239	-22.290698	-18.745703	-74.421833	27.824073	10.403040	0.000000	54.579080	-28.609991	-14.256092	-74.432875	27.853187	16.914829	0.000000	-6.458803	2.149616	1.403540
2.880000	11.856574	2.113227	-181.404048	0.277878	0.695017	-1.214618	53.604658	-22.328520	-18.580726	-75.076983	28.094042	10.359020	0.000000	54.979008	-28.828607	-14.123997	-75.082177	28.100361	17.160352	0.000000	-6.540095	2.189318	1.504425
2.885000	11.833530	2.122302	-181.401604	0.278294	0.692334	-1.214970	53.975693	-22.418204	-18.453666	-75.748668	28.389644	10.344637	0.000000	55.377384	-29.004873	-13.959026	-75.711183	28.350295	17.265401	0.000000	-6.644750	2.155594	1.535061
2.890000	11.825416	2.147964	-181.464258	0.278643	0.689668	-1.215167	54.343798	-22.458333	-18.287853	-76.364000	28.688634	10.403024	0.000000	55.764048	-29.220787	-13.819982	-76.343689	28.723995	17.221035	0.000000	-6.727102	2.178114	1.610440
2.895000	11.848808	2.155068	-181.452461	0.278955	0.686975	-1.215384	54.712772	-22.546269	-18.049549	-76.947683	29.078396	10.865196	0.000000	56.204959	-29.366681	-13.631770	-76.967944	28.969148	17.399017	0.000000	-6.753187	2.159155	1.671555
2.900000	11.809070	2.177788	-181.457811	0.279307	0.684280	-1.215570	55.058575	-22.646605	-17.967432	-77.611062	29.364431	10.800722	0.000000	56.587010	-29.527703	-13.440041	-77.588964	29.196540	17.538197	0.000000	-6.865714	2.178806	1.680373
2.905000	11.875500	2.276954	-181.543517	0.279689	0.681734	-1.215685	55.496697	-22.621268	-17.971074	-78.222213	29.452409	10.386675	0.000000	57.084750	-29.776682	-13.206165	-78.198110	29.465743	17.562914	0.000000	-6.864765	2.296917	1.834242
2.910000	11.856549	2.284181	-181.553203	0.280031	0.679061	-1.215718	55.860622	-22.746773	-17.860692	-78.867556	29.727703	10.393736	0.000000	57.474892	-29.895181	-13.013871	-78.815105	29.730811	17.587939	0.000000	-6.953279	2.318451	1.834669
2.915000	11.852463	2.324080	-181.568217	0.280319	0.676458	-1.215871	56.201670	-22.814983	-17.765067	-79.468680	29.994300	10.418502	0.000000	57.881781	-30.055307	-12.797243	-79.415145	29.995675	17.659738	0.000000	-7.004857	2.347128	1.889469
